#!OML:ASF E:\Steps\Project 1\Capture day 1\Session 2\Subject.ASF
:FULLY-SPECIFIED
:DEGREES
333
root 8.70336 16.1003 18.7357 -156.66 -3.6525 180.835
lowerback -25.8342 -2.43007 -3.36854
upperback 0.308536 -2.63117 1.23097
thorax 15.1383 -1.60775 2.33694
lowerneck -4.1588 -3.54777 -1.01531
upperneck 15.5984 -4.61973 3.76081
head 5.4932 -1.78801 1.09109
rclavicle -1.59028e-015 -9.93923e-016
rhumerus -44.5774 -25.9979 -68.0659
rradius 29.0456
rwrist 2.30659
rhand -7.15781 -54.3575
rfingers 7.12502
rthumb 18.719 -83.4768
lclavicle -1.59028e-015 -9.93923e-016
lhumerus -33.9052 2.14523 80.4091
lradius 27.3003
lwrist -7.07916
lhand -19.9739 -10.4483
lfingers 7.12502
lthumb 6.36501 19.4361
rfemur -31.5794 3.08766 25.1466
rtibia 11.2061
rfoot -12.4305 -7.50044
rtoes -31.2843
lfemur -33.7706 -1.39027 -19.4611
ltibia 67.4075
lfoot 6.48007 0.839508
ltoes -30.9122
334
root 8.71605 16.1035 18.6393 -156.697 -3.49818 180.853
lowerback -25.5876 -2.29776 -3.52736
upperback 0.23578 -2.42247 1.24651
thorax 14.903 -1.52593 2.53312
lowerneck -4.02666 -3.7504 -1.08456
upperneck 15.4494 -4.90377 3.86737
head 5.43597 -1.92911 1.12063
rclavicle -4.02539e-015 3.77691e-015
rhumerus -44.0333 -25.646 -68.6268
rradius 29.567
rwrist 1.79561
rhand -6.8574 -53.5196
rfingers 7.12502
rthumb 19.008 -82.6109
lclavicle -4.02539e-015 3.77691e-015
lhumerus -34.0283 2.55006 80.2914
lradius 26.6943
lwrist -8.20421
lhand -20.2597 -10.5576
lfingers 7.12502
lthumb 6.08905 19.3349
rfemur -31.045 2.94377 25.3217
rtibia 11.029
rfoot -12.8057 -7.25903
rtoes -31.4207
lfemur -35.2289 -1.09341 -19.574
ltibia 69.1469
lfoot 5.37133 1.41509
ltoes -31.0627
335
root 8.73107 16.1086 18.5424 -156.808 -3.50253 180.795
lowerback -25.4864 -2.30126 -3.76971
upperback 0.361672 -2.34858 1.2907
thorax 15.0046 -1.51137 2.75485
lowerneck -4.11432 -3.57878 -1.18644
upperneck 15.4888 -4.65985 3.85061
head 5.45859 -1.81592 1.14552
rclavicle -1.35671e-014 -2.78299e-015
rhumerus -43.0903 -24.822 -69.5875
rradius 30.2301
rwrist 0.96801
rhand -6.36798 -52.7757
rfingers 7.12502
rthumb 19.4786 -81.8201
lclavicle -1.35671e-014 -2.78299e-015
lhumerus -33.8479 3.17999 80.121
lradius 26.0931
lwrist -9.06408
lhand -20.5005 -10.7862
lfingers 7.12502
lthumb 5.85662 19.1129
rfemur -30.4016 2.90683 25.3688
rtibia 10.8614
rfoot -13.1031 -7.48387
rtoes -32.3099
lfemur -36.515 -0.999932 -19.679
ltibia 70.4676
lfoot 4.47736 2.0942
ltoes -29.0949
336
root 8.74945 16.1144 18.4498 -156.895 -3.38793 180.742
lowerback -24.4307 -2.24793 -4.07878
upperback -0.0970051 -2.26607 1.33651
thorax 13.8686 -1.48697 3.03815
lowerneck -4.02461 -3.55815 -1.21707
upperneck 15.9685 -4.57359 3.71258
head 5.58786 -1.75777 1.11496
rclavicle -8.57259e-015 1.3418e-014
rhumerus -43.182 -23.2794 -70.3506
rradius 31.1824
rwrist -0.180171
rhand -7.39477 -54.1091
rfingers 7.12502
rthumb 18.4911 -83.2503
lclavicle -8.57259e-015 1.3418e-014
lhumerus -34.5896 3.87369 79.7582
lradius 25.5567
lwrist -9.85726
lhand -20.6192 -11.1413
lfingers 7.12502
lthumb 5.742 18.7609
rfemur -29.8038 2.792 25.4714
rtibia 10.6761
rfoot -13.2848 -7.54315
rtoes -32.9999
lfemur -37.7836 -0.753251 -19.811
ltibia 71.5828
lfoot 3.50635 2.85247
ltoes -27.824
337
root 8.76566 16.1206 18.3578 -156.926 -3.21646 180.679
lowerback -25.4734 -2.11026 -4.019
upperback 0.682514 -1.94523 1.01597
thorax 15.3479 -1.33349 2.73392
lowerneck -4.37528 -3.71463 -0.783535
upperneck 15.1482 -4.91321 3.84583
head 5.39446 -1.93567 1.05759
rclavicle 2.33572e-015 -3.37934e-015
rhumerus -41.3026 -23.2816 -71.9782
rradius 31.7608
rwrist -0.793238
rhand -9.11412 -56.7585
rfingers 7.12502
rthumb 16.8366 -86.0486
lclavicle 2.33572e-015 -3.37934e-015
lhumerus -33.1767 4.48795 79.1369
lradius 24.8077
lwrist -10.5294
lhand -20.7062 -11.1354
lfingers 7.12502
lthumb 5.65803 18.7691
rfemur -29.2471 2.78659 25.5084
rtibia 10.3984
rfoot -13.648 -7.30917
rtoes -33.4736
lfemur -39.1095 -0.555018 -19.9815
ltibia 72.5103
lfoot 2.29489 3.52301
ltoes -28.4063
338
root 8.77784 16.1259 18.2626 -156.918 -3.10982 180.624
lowerback -25.2265 -2.04265 -4.14981
upperback 0.571188 -1.82641 0.959591
thorax 15.0646 -1.28424 2.79304
lowerneck -3.86386 -3.98906 -0.798168
upperneck 14.4962 -5.30189 3.95916
head 5.11846 -2.14892 1.08297
rclavicle -2.17172e-014 -1.59028e-015
rhumerus -40.8255 -22.5594 -72.6818
rradius 32.4111
rwrist -1.20055
rhand -6.88114 -53.3697
rfingers 7.12502
rthumb 18.9851 -82.4632
lclavicle -2.17172e-014 -1.59028e-015
lhumerus -33.4772 5.19406 78.7145
lradius 24.4918
lwrist -10.9967
lhand -20.7325 -10.9705
lfingers 7.12502
lthumb 5.63264 18.9346
rfemur -28.7383 2.79773 25.528
rtibia 10.1829
rfoot -14.29 -6.92694
rtoes -33.647
lfemur -40.4351 -0.614676 -20.0751
ltibia 72.9969
lfoot 1.25308 3.94908
ltoes -30.0062
339
root 8.79138 16.1347 18.166 -157.066 -3.03678 180.575
lowerback -24.9763 -2.00912 -4.3017
upperback 0.597247 -1.73593 0.925929
thorax 14.9495 -1.2498 2.87963
lowerneck -4.0277 -3.87877 -0.798469
upperneck 15.0765 -5.11988 3.87093
head 5.31901 -2.0358 1.06218
rclavicle -7.95139e-015 3.77691e-015
rhumerus -40.1663 -22.1395 -73.2373
rradius 32.8525
rwrist -1.19851
rhand -7.18366 -53.7912
rfingers 7.12502
rthumb 18.6942 -82.9129
lclavicle -7.95139e-015 3.77691e-015
lhumerus -33.625 5.95214 78.2894
lradius 24.1581
lwrist -11.11
lhand -20.7176 -11.0481
lfingers 7.12502
lthumb 5.64705 18.8567
rfemur -28.0302 2.70389 25.6123
rtibia 9.959
rfoot -14.6504 -6.77593
rtoes -34.281
lfemur -41.5054 -0.749677 -20.1025
ltibia 73.2353
lfoot 0.543553 4.15003
ltoes -31.2495
340
root 8.80711 16.1461 18.0705 -157.211 -2.99393 180.605
lowerback -25.2174 -1.96227 -4.44954
upperback 0.918028 -1.58965 0.936315
thorax 15.4676 -1.20204 3.03021
lowerneck -4.01743 -2.95998 -0.902991
upperneck 14.7662 -5.27861 4.18377
head 5.23565 -2.64767 1.119
rclavicle -2.48481e-015 6.16232e-015
rhumerus -39.0784 -21.9528 -73.8285
rradius 33.2625
rwrist -1.31538
rhand -5.08814 -48.7481
rfingers 7.12502
rthumb 20.7087 -77.6632
lclavicle -2.48481e-015 6.16232e-015
lhumerus -33.1688 7.02369 77.897
lradius 23.6206
lwrist -11.3393
lhand -20.8597 -10.9505
lfingers 7.12502
lthumb 5.5098 18.9578
rfemur -27.3418 2.62852 25.7971
rtibia 9.77187
rfoot -14.6331 -6.83379
rtoes -35.0687
lfemur -42.5585 -0.915679 -19.9824
ltibia 73.3051
lfoot -0.211395 4.31035
ltoes -31.1365
341
root 8.82126 16.1536 17.9791 -157.127 -2.88522 180.626
lowerback -24.8226 -1.86239 -4.44588
upperback 0.666034 -1.48637 0.857175
thorax 14.9241 -1.14309 2.97884
lowerneck -3.75627 -3.02316 -0.903843
upperneck 14.7746 -5.40833 4.31809
head 5.20107 -2.7156 1.15741
rclavicle -7.60351e-015 -6.36111e-015
rhumerus -38.8766 -20.9268 -74.6599
rradius 34.2717
rwrist -2.26663
rhand -4.85839 -47.604
rfingers 7.12502
rthumb 20.9295 -76.4949
lclavicle -7.60351e-015 -6.36111e-015
lhumerus -33.6837 7.83374 77.2763
lradius 23.328
lwrist -11.4787
lhand -21.1467 -10.5064
lfingers 7.12502
lthumb 5.23274 19.409
rfemur -26.9586 2.51156 25.9517
rtibia 9.62067
rfoot -14.6602 -6.63298
rtoes -35.237
lfemur -43.868 -1.16248 -19.814
ltibia 73.0944
lfoot -1.069 4.48254
ltoes -30.5857
342
root 8.83744 16.1596 17.8866 -157.148 -2.76939 180.445
lowerback -24.9868 -1.89945 -4.66674
upperback 0.939004 -1.42055 0.756083
thorax 15.3455 -1.13044 3.01208
lowerneck -3.9865 -3.18668 -0.862209
upperneck 14.4818 -5.55989 4.23262
head 5.15072 -2.77517 1.11439
rclavicle 1.1281e-014 2.38542e-015
rhumerus -37.6815 -20.1977 -75.6106
rradius 34.7925
rwrist -2.69482
rhand -5.81579 -48.7317
rfingers 7.12502
rthumb 20.0094 -77.7215
lclavicle 1.1281e-014 2.38542e-015
lhumerus -33.2882 8.77377 76.8394
lradius 22.9134
lwrist -11.5043
lhand -21.327 -10.0078
lfingers 7.12502
lthumb 5.05859 19.9118
rfemur -26.3658 2.51515 25.8301
rtibia 9.27961
rfoot -14.8101 -6.60594
rtoes -35.6668
lfemur -44.9427 -1.51341 -19.8187
ltibia 72.7448
lfoot -1.81248 4.41084
ltoes -29.9873
